<svg xmlns="http://www.w3.org/2000/svg" viewBox="0 0 1024 1024" role="img" aria-labelledby="title">
<title id="title">睿眼自动化渗透系统</title>
<defs>
  <linearGradient id="icon-background" x1="0" y1="0" x2="1" y2="1">
    <stop offset="0" stop-color="#0A1538" />
    <stop offset="1" stop-color="#244A98" />
  </linearGradient>
</defs>
<rect width="1024" height="1024" rx="218" fill="url(#icon-background)" />
<path d="M168 512 Q512 188 856 512" fill="none" stroke="#F4F8FF" stroke-width="54" stroke-linecap="round" />
<path d="M168 512 Q512 836 856 512" fill="none" stroke="#F4F8FF" stroke-width="54" stroke-linecap="round" />
<path d="M512 364 640 438 640 586 512 660 384 586 384 438Z" fill="#16B89A" />
<circle cx="512" cy="512" r="68" fill="#0A1538" />
<circle cx="512" cy="512" r="24" fill="#FFFFFF" />
<path d="M304 204H178V330 M720 204H846V330 M304 820H178V694 M720 820H846V694" fill="none" stroke="#315EFB" stroke-width="32" stroke-linecap="round" stroke-linejoin="round" />
<g fill="#16B89A">
  <circle cx="168" cy="512" r="14" /><circle cx="856" cy="512" r="14" />
  <circle cx="512" cy="188" r="14" /><circle cx="512" cy="836" r="14" />
</g>
</svg>
