<svg xmlns="http://www.w3.org/2000/svg" viewBox="0 0 920 220" role="img" aria-labelledby="title">
<title id="title">睿眼自动化渗透系统</title>
<g transform="translate(18 18) scale(.18)"><defs>
  <linearGradient id="wordmark-dark-background" x1="0" y1="0" x2="1" y2="1">
    <stop offset="0" stop-color="#0A1538" />
    <stop offset="1" stop-color="#244A98" />
  </linearGradient>
</defs>
<rect width="1024" height="1024" rx="218" fill="url(#wordmark-dark-background)" />
<path d="M168 512 Q512 188 856 512" fill="none" stroke="#F4F8FF" stroke-width="54" stroke-linecap="round" />
<path d="M168 512 Q512 836 856 512" fill="none" stroke="#F4F8FF" stroke-width="54" stroke-linecap="round" />
<path d="M512 364 640 438 640 586 512 660 384 586 384 438Z" fill="#16B89A" />
<circle cx="512" cy="512" r="68" fill="#0A1538" />
<circle cx="512" cy="512" r="24" fill="#FFFFFF" />
<path d="M304 204H178V330 M720 204H846V330 M304 820H178V694 M720 820H846V694" fill="none" stroke="#315EFB" stroke-width="32" stroke-linecap="round" stroke-linejoin="round" />
<g fill="#16B89A">
  <circle cx="168" cy="512" r="14" /><circle cx="856" cy="512" r="14" />
  <circle cx="512" cy="188" r="14" /><circle cx="512" cy="836" r="14" />
</g></g>
<text x="230" y="100" fill="#F4F7FF" font-family="Microsoft YaHei, PingFang SC, Noto Sans CJK SC, sans-serif" font-size="52" font-weight="700">睿眼自动化渗透系统</text>
  <text x="232" y="148" fill="#AEBBCE" font-family="Inter, Segoe UI, sans-serif" font-size="25" font-weight="600" letter-spacing="2">RuiYan-Pentest</text>
</svg>
