<svg xmlns="http://www.w3.org/2000/svg" viewBox="0 0 240 160" role="img" aria-labelledby="title description">
  <title id="title">睿眼服务连接</title>
  <desc id="description">两个安全节点通过加密链路连接</desc>
  <defs>
    <linearGradient id="connection-panel" x1="0" y1="0" x2="1" y2="1">
      <stop offset="0" stop-color="#EAF2FF" />
      <stop offset="1" stop-color="#E8FBF7" />
    </linearGradient>
  </defs>
  <rect x="12" y="12" width="216" height="136" rx="18" fill="url(#connection-panel)" />
  <path d="M72 80h96" fill="none" stroke="#1677FF" stroke-width="5" stroke-linecap="round" stroke-dasharray="7 9" />
  <circle cx="60" cy="80" r="31" fill="#FFFFFF" stroke="#1677FF" stroke-width="4" />
  <circle cx="180" cy="80" r="31" fill="#FFFFFF" stroke="#14B8A6" stroke-width="4" />
  <path d="M48 76h24v18H48zM52 76v-7a8 8 0 0 1 16 0v7" fill="none" stroke="#0A1538" stroke-width="4" stroke-linecap="round" stroke-linejoin="round" />
  <path d="M168 72h24v18h-24zM174 72v-5a6 6 0 0 1 12 0v5" fill="none" stroke="#0A1538" stroke-width="4" stroke-linecap="round" stroke-linejoin="round" />
  <circle cx="120" cy="80" r="14" fill="#0A1538" />
  <path d="m114 80 4 4 8-9" fill="none" stroke="#FFFFFF" stroke-width="3" stroke-linecap="round" stroke-linejoin="round" />
  <circle cx="26" cy="29" r="4" fill="#1677FF" />
  <circle cx="214" cy="131" r="4" fill="#14B8A6" />
</svg>
